PathFileType	4	(X/Y/Z)	/Users/itak/Documents/Research/Walk-IL/dataset/trc/00033_00004.trc
DataRate	CameraRate	NumFrames	NumMarkers	Units	OrigDataRate	OrigDataStartFrame	OrigNumFrames
100.000000	100.000000	4	53	mm	100.000000	518	829
Frame#	Time	RPSI			LPSI			L3			STRN			T10			C7			CLAV			RBAK			LBAK			LSHO			LUPA			LAEL			LAOL			LWTS			LWPS			LFRA			LIFD			LHPS			LHTS			RSHO			RUPA			RAEL			RAOL			RWTS			RWPS			RFRA			RIFD			RHTS			RHPS			RBHD			LFHD			RFHD			LBHD			LHIP			RHIP			RASI			LASI			LKNE			LTHI			LANK			LTIP			LTOE			LMT1			LMT5			LHEE			RKNE			RTHI			RANK			RTIP			RTOE			RMT1			RMT5			RHEE			
		X1	Y1	Z1	X2	Y2	Z2	X3	Y3	Z3	X4	Y4	Z4	X5	Y5	Z5	X6	Y6	Z6	X7	Y7	Z7	X8	Y8	Z8	X9	Y9	Z9	X10	Y10	Z10	X11	Y11	Z11	X12	Y12	Z12	X13	Y13	Z13	X14	Y14	Z14	X15	Y15	Z15	X16	Y16	Z16	X17	Y17	Z17	X18	Y18	Z18	X19	Y19	Z19	X20	Y20	Z20	X21	Y21	Z21	X22	Y22	Z22	X23	Y23	Z23	X24	Y24	Z24	X25	Y25	Z25	X26	Y26	Z26	X27	Y27	Z27	X28	Y28	Z28	X29	Y29	Z29	X30	Y30	Z30	X31	Y31	Z31	X32	Y32	Z32	X33	Y33	Z33	X34	Y34	Z34	X35	Y35	Z35	X36	Y36	Z36	X37	Y37	Z37	X38	Y38	Z38	X39	Y39	Z39	X40	Y40	Z40	X41	Y41	Z41	X42	Y42	Z42	X43	Y43	Z43	X44	Y44	Z44	X45	Y45	Z45	X46	Y46	Z46	X47	Y47	Z47	X48	Y48	Z48	X49	Y49	Z49	X50	Y50	Z50	X51	Y51	Z51	X52	Y52	Z52	X53	Y53	Z53	

519	5.18	786.9588012695312	1031.264038085938	-203.9303894042969	943.9019775390625	1032.585815429688	-254.1129760742188	868.1224365234375	1096.81396484375	-236.7303924560547	914.0625	1277.932250976562	-10.59147071838379	853.7000732421875	1241.897216796875	-255.888916015625	863.253662109375	1507.450317382812	-190.3979034423828	899.982421875	1405.044677734375	-45.08773040771484	779.6707153320312	1367.990234375	-235.6618041992188	954.214111328125	1476.830078125	-235.8792572021484	1049.266479492188	1480.041137695312	-154.4849548339844	1122.869750976562	1370.015502929688	-222.9597625732422	1161.592041015625	1162.009399414062	-271.668701171875	1060.600341796875	1148.969604492188	-303.5576782226562	1139.537841796875	894.91796875	-216.5498809814453	1167.132568359375	895.29345703125	-301.771484375	1177.207153320312	1046.289428710938	-280.4967346191406	1132.209716796875	705.9737548828125	-220.0322570800781	1175.663452148438	801.6871337890625	-285.1163330078125	1159.399658203125	800.3823852539062	-216.4346313476562	711.9841918945312	1473.832885742188	-80.76731872558594	641.9547119140625	1403.111694335938	-86.60613250732422	611.9141845703125	1137.2451171875	-142.7255401611328	708.0738525390625	1115.65771484375	-164.4894104003906	709.90625	916.4865112304688	20.04416084289551	633.8187255859375	877.3195190429688	-18.56102752685547	606.2015380859375	1058.182495117188	-117.7365646362305	773.1262817382812	753.28857421875	73.49352264404297	728.1243286132812	822.3256225585938	79.63970184326172	668.9575805664062	792.0511474609375	42.80826187133789	935.7987060546875	1690.65576171875	-63.61565780639648	773.8087768554688	1632.12451171875	73.31329345703125	867.7075805664062	1641.917724609375	99.68287658691406	795.9566040039062	1671.140258789062	-96.11422729492188	1086.86181640625	938.31689453125	-188.0650024414062	729.0296630859375	909.7521362304688	-69.82941436767578	827.302978515625	945.9043579101562	9.210905075073242	1048.599975585938	982.7861328125	-62.88076019287109	1114.082763671875	540.2966918945312	30.97674179077148	1132.224487304688	654.9750366210938	-59.21501541137695	1190.181762695312	50.06808853149414	58.99433517456055	1167.107177734375	299.3633422851562	14.91704368591309	1138.5537109375	98.79947662353516	271.4168395996094	1117.729370117188	87.64382171630859	215.23486328125	1216.833618164062	78.91252136230469	176.4769897460938	1135.52001953125	34.66603469848633	-4.385298728942871	821.7355346679688	483.6406555175781	-145.9146575927734	760.4963989257812	741.5977172851562	-71.74131011962891	817.8880615234375	42.16056823730469	-374.4671936035156	824.526611328125	364.9747619628906	-197.9015502929688	985.1650390625	30.74653053283691	-208.2257385253906	972.4231567382812	38.8046760559082	-275.3496704101562	882.6055297851562	33.40639495849609	-239.2897186279297	824.90380859375	52.74910354614258	-443.9151916503906	
520	5.19	791.572998046875	1030.400146484375	-197.6231994628906	949.246826171875	1031.242919921875	-245.6459808349609	873.2653198242188	1095.633422851562	-229.4091186523438	916.240234375	1276.779174804688	-2.736812829971313	859.1686401367188	1240.747680664062	-248.7471618652344	867.8681640625	1506.299682617188	-183.1979522705078	902.7247924804688	1403.903564453125	-37.39959716796875	784.8717651367188	1366.87841796875	-229.6355590820312	959.40380859375	1475.623657226562	-227.4945526123047	1053.314453125	1478.702758789062	-144.8162231445312	1127.829956054688	1368.7958984375	-212.4491271972656	1167.30712890625	1160.841918945312	-260.7408752441406	1066.726684570312	1147.704956054688	-293.8148193359375	1144.758178710938	893.7216186523438	-205.9350128173828	1173.365356445312	894.1449584960938	-290.8445739746094	1183.087890625	1045.121215820312	-269.3501281738281	1136.907348632812	704.1288452148438	-210.5612182617188	1181.802734375	800.4993896484375	-274.0692749023438	1164.620849609375	799.0623168945312	-205.6073760986328	715.1246337890625	1472.667724609375	-75.61465454101562	645.17236328125	1402.009033203125	-82.43448638916016	615.7754516601562	1136.22216796875	-139.1399993896484	712.0899047851562	1114.517333984375	-159.5918273925781	711.012451171875	915.0359497070312	24.59173011779785	635.4212036132812	876.076171875	-15.18900108337402	609.7755737304688	1057.140869140625	-114.3041000366211	772.9629516601562	751.5477294921875	78.55825042724609	728.1380004882812	820.6881713867188	84.22525787353516	669.5081176757812	790.5914916992188	46.49768829345703	938.8169555664062	1689.439819335938	-55.41442108154297	775.448974609375	1630.703369140625	79.91886138916016	869.1083374023438	1640.265380859375	107.1618881225586	799.3212890625	1670.00634765625	-89.35761260986328	1090.685913085938	936.48388671875	-178.0758819580078	731.6717529296875	909.2688598632812	-64.25387573242188	828.8700561523438	944.97119140625	16.11077308654785	1051.189453125	981.58251953125	-53.00481414794922	1114.855102539062	539.6434936523438	42.09508895874023	1134.903686523438	653.3903198242188	-48.56166076660156	1189.437744140625	50.7835578918457	85.69814300537109	1167.485961914062	299.0029907226562	33.27753067016602	1131.310791015625	105.6646957397461	294.9871215820312	1112.297729492188	93.03764343261719	238.4944458007812	1212.44482421875	82.64701080322266	203.2516479492188	1136.793212890625	33.62699890136719	21.00452423095703	822.7164916992188	483.2022399902344	-141.4534606933594	762.1082763671875	741.151611328125	-66.79653930664062	817.9639892578125	43.42704772949219	-374.1698608398438	825.3614501953125	364.7301330566406	-194.4100799560547	985.1659545898438	30.7392578125	-208.1709899902344	972.4285888671875	39.16255569458008	-275.1675109863281	882.5487060546875	33.333740234375	-239.0423583984375	825.0534057617188	54.75280380249023	-443.54833984375	
521	5.2	796.2293701171875	1029.53564453125	-191.1503448486328	954.5944213867188	1029.916748046875	-236.9815368652344	878.4151611328125	1094.444580078125	-221.9040832519531	918.4207763671875	1275.670166015625	5.238764762878418	864.655029296875	1239.5830078125	-241.4211273193359	872.4650268554688	1505.15234375	-175.9138488769531	905.4715576171875	1402.796875	-29.60998725891113	790.0850830078125	1365.748291015625	-223.480224609375	964.5465087890625	1474.408203125	-218.9983978271484	1057.32861328125	1477.427734375	-135.0816802978516	1132.728759765625	1367.619018554688	-201.8401641845703	1172.957153320312	1159.68115234375	-249.6673431396484	1072.810546875	1146.458618164062	-283.9179992675781	1149.998657226562	892.5711669921875	-195.1413421630859	1179.57666015625	893.0267944335938	-279.7212829589844	1188.933349609375	1043.978637695312	-258.05224609375	1141.969360351562	702.5396118164062	-200.5003204345703	1187.939208984375	799.343017578125	-262.7927551269531	1169.825317382812	797.7455444335938	-194.5150146484375	718.2799682617188	1471.51513671875	-70.38893890380859	648.4268798828125	1400.910278320312	-78.17702484130859	619.656494140625	1135.231079101562	-135.4676666259766	716.0855712890625	1113.379516601562	-154.5722351074219	712.0642700195312	913.480224609375	29.0329647064209	636.990234375	874.781494140625	-11.92301082611084	613.3641357421875	1056.13427734375	-110.8223724365234	772.7383422851562	749.654296875	83.37925720214844	728.0828247070312	818.8951416015625	88.61628723144531	669.98388671875	789.0263061523438	49.98295211791992	941.7373657226562	1688.210815429688	-47.06256866455078	777.0845336914062	1629.300170898438	86.60663604736328	870.473388671875	1638.67236328125	114.7003479003906	802.6441040039062	1668.896484375	-82.53594970703125	1094.438110351562	934.5633544921875	-167.9322814941406	734.557861328125	908.7559814453125	-58.50747680664062	830.4467163085938	944.0631713867188	23.17217254638672	1053.7158203125	980.4261474609375	-42.93878555297852	1115.190795898438	538.8544311523438	53.37125396728516	1137.362915039062	651.7525634765625	-37.65811538696289	1188.386474609375	51.55232238769531	110.7399520874023	1167.521728515625	298.6698303222656	50.96277618408203	1123.468505859375	111.6519241333008	316.7101745605469	1106.372314453125	97.72572326660156	259.9177856445312	1207.547729492188	86.05207824707031	228.3611907958984	1137.880737304688	32.77460098266602	44.69927215576172	823.7772216796875	482.7580871582031	-136.7529602050781	763.7235717773438	740.7058715820312	-61.69546127319336	818.0125732421875	44.84602355957031	-373.8444519042969	826.2476196289062	364.5047607421875	-190.7137603759766	985.170654296875	30.73974990844727	-208.1112213134766	972.4642333984375	39.57791519165039	-274.9502258300781	882.5028076171875	33.27759552001953	-238.7698211669922	825.2283935546875	56.93363189697266	-443.1232604980469	
522	5.21	800.9296264648438	1028.667114257812	-184.5116729736328	959.9458618164062	1028.60498046875	-228.1076965332031	883.5795288085938	1093.2509765625	-214.2111968994141	920.5924682617188	1274.608276367188	13.33290958404541	870.148681640625	1238.40185546875	-233.9283294677734	877.0501708984375	1504.00927734375	-168.5428924560547	908.2152099609375	1401.725463867188	-21.72295379638672	795.315185546875	1364.603393554688	-217.19091796875	969.6467895507812	1473.184936523438	-210.3865966796875	1061.313110351562	1476.218505859375	-125.2731628417969	1137.573120117188	1366.486328125	-191.1227111816406	1178.553100585938	1158.533081054688	-238.4343109130859	1078.860107421875	1145.236938476562	-273.8630065917969	1155.254516601562	891.4747924804688	-184.1557159423828	1185.76904296875	891.9390869140625	-268.3910217285156	1194.74658203125	1042.866577148438	-246.5910034179688	1147.293212890625	701.171630859375	-189.9181060791016	1194.059326171875	798.21484375	-251.2853851318359	1175.02001953125	796.4657592773438	-183.1738433837891	721.4575805664062	1470.38330078125	-65.09368896484375	651.719970703125	1399.819213867188	-73.83351898193359	623.5512084960938	1134.27880859375	-131.7133941650391	720.0721435546875	1112.24951171875	-149.4303131103516	713.054931640625	911.8262939453125	33.36311721801758	638.52685546875	873.4443359375	-8.769658088684082	616.9382934570312	1055.167114257812	-107.3013916015625	772.4581909179688	747.6167602539062	87.96233367919922	727.9559936523438	816.9566650390625	92.81270599365234	670.3766479492188	787.3681030273438	53.26144027709961	944.5675048828125	1686.98486328125	-38.57695007324219	778.6970825195312	1627.933349609375	93.35381317138672	871.7622680664062	1637.158081054688	122.2758102416992	805.9308471679688	1667.811645507812	-75.66441345214844	1098.181396484375	932.6220703125	-157.5249176025391	737.7137451171875	908.2091674804688	-52.57952499389648	832.0186767578125	943.1805419921875	30.39115905761719	1056.182983398438	979.3154907226562	-32.67212677001953	1115.080932617188	537.9729614257812	64.86299896240234	1139.509399414062	650.1088256835938	-26.39806175231934	1187.032470703125	52.20497512817383	133.8110961914062	1167.236328125	298.2958374023438	67.91516876220703	1115.239501953125	116.4590301513672	336.4253234863281	1100.09423828125	101.438346862793	279.3404846191406	1202.256958007812	88.90567016601562	251.5022583007812	1138.7216796875	31.99794960021973	66.43228912353516	824.9469604492188	482.3052978515625	-131.7944946289062	765.3615112304688	740.2522583007812	-56.39179992675781	818.0653076171875	46.42174911499023	-373.48681640625	827.205810546875	364.2882385253906	-186.7896270751953	985.1792602539062	30.74948310852051	-208.0444030761719	972.5346069335938	40.03897857666016	-274.6892395019531	882.4729614257812	33.25088882446289	-238.4721984863281	825.4398193359375	59.30672836303711	-442.6353759765625	
